<?xml version="1.0"?>
<svg
   xmlns="http://www.w3.org/2000/svg"
   width="300"
   height="222.89"
   viewBox="0 0 240 178.312">
  <g
     transform="matrix(0.11816598,0,0,0.11816598,1.7792146,1.2939857)">
      <path
         d="m 1220.84,3.74 c 14.5,-5.05 30.73,-4.9 45.04,0.72 17.41,6.92 31.59,19.86 43.47,34.05 6.29,7.71 13.82,14.53 18.81,23.22 0.96,1.86 2.87,5.24 0.2,6.53 -7.16,1.49 -14.27,-1.9 -21.45,-1.13 -2.02,1.19 -1.92,3.9 -2.27,5.92 -0.65,10.3 6.4,19.55 5.12,29.92 -3.68,-0.76 -6.73,-3.02 -9.76,-5.09 -9.07,-6.28 -19.1,-11.18 -29.65,-14.4 -8.93,-2.46 -18.83,-4.28 -27.69,-0.65 -6.46,2.58 -10.45,9.33 -10.62,16.14 -0.13,4.44 0.08,9.45 2.96,13.09 3.86,3.99 9.58,5.06 14.81,6.07 14.02,2.66 28.16,4.92 41.84,9.09 12.6,3.89 23.64,12.59 30.09,24.14 7.42,12.63 10.03,27.28 12.14,41.58 4.35,37.82 4.85,76.98 -6.45,113.7 -2.55,7.55 -5.43,15.14 -10.09,21.68 -2.23,2.93 -4.78,5.85 -8.31,7.19 -3.49,0.83 -4.4,-3.48 -4.7,-6.02 -0.7,-9.16 0.14,-18.35 0.69,-27.49 0.22,-4.73 -0.18,-9.93 -3.5,-13.61 -4.3,-5.1 -11.59,-5.37 -16.75,-9.15 -2.25,-1.62 -2.82,-4.67 -1.76,-7.16 2.44,-6.91 4.42,-13.96 6.19,-21.07 3.05,-11.98 5.67,-24.6 3.07,-36.91 -1.26,-7.42 -5.71,-14.3 -12.13,-18.27 -4.16,-2.84 -9.05,-5.54 -14.27,-4.5 -5.76,1.01 -9.08,6.71 -10.66,11.85 -3.42,11.99 -0.74,24.94 4.7,35.91 3.01,6.67 7.39,12.84 8.88,20.11 0.18,1.97 0.52,4.97 -1.86,5.76 -4.75,1.36 -9.49,-0.83 -14,-2.06 -4.7,-1.27 -9.14,-3.53 -14,-4.05 -2.08,-0.26 -4.44,0.98 -4.7,3.2 -1.08,6.38 2.51,12.18 4.92,17.82 17.07,36.12 31.42,73.43 46.56,110.39 8.39,20.43 16.31,41.05 24.43,61.59 7.66,19.65 15.64,39.18 22.73,59.06 23.17,65.76 41.09,133.43 52.57,202.21 3.85,20.92 5.12,42.18 6.36,63.38 1.27,32.13 0.82,64.31 -0.75,96.43 -1.47,23.58 -3.02,47.21 -6.77,70.56 -1.91,10.79 -3.99,21.8 -9.23,31.54 -2.79,5.5 -7.34,10.28 -13.15,12.55 -6.88,2.72 -14.64,2.12 -21.63,0.12 -5.7,-1.61 -11.18,-5.73 -12.54,-11.74 -2.68,-10.23 0.06,-20.77 1.35,-30.99 3.13,-24.18 9.11,-47.88 12.18,-72.07 7.29,-51.29 6.11,-103.42 0.91,-154.84 -5.17,-54.93 -14.97,-109.35 -27.81,-162.98 -18.72,-77.1 -43.69,-152.7 -74.83,-225.68 -2.78,-6.51 -5.59,-13 -8.72,-19.34 -1.58,-3.04 -4.91,-6.32 -8.62,-4.8 -4.5,3.47 -4.95,10.6 -10.33,13.16 -3.35,0.94 -5,-2.85 -5.88,-5.37 -3.22,-11.12 -4.42,-22.79 -8.26,-33.74 -1.3,-3.93 -3.7,-7.73 -7.61,-9.46 -2.4,-1.07 -5.5,-2.43 -7.92,-0.75 -2.13,2.05 -2.11,5.23 -2.27,7.96 -0.27,8.38 0.12,16.86 2.22,25 2.55,10.45 5.93,20.67 8.75,31.05 -1.99,4.31 -8.53,5.66 -8.24,11 -0.2,4.63 0.71,9.23 0.58,13.86 -5.84,4.93 -14.06,3.98 -20.87,6.46 -0.14,1.73 -0.54,3.55 0.14,5.24 3.62,8.61 9.04,16.46 11.95,25.36 -0.59,4.12 -4.58,6.45 -6.73,9.73 -5.75,8.28 -6.13,18.74 -7.4,28.4 -0.47,3.01 -1.09,6.98 -4.28,8.29 -3.29,-1.76 -4.19,-5.7 -5.79,-8.77 -2.82,-6.74 -6.95,-12.78 -11.13,-18.73 -12.21,-17.32 -23.22,-35.5 -32.56,-54.53 -5.89,-11.02 -10.23,-22.9 -12.22,-35.26 -4.15,-24.94 -0.05,-50.38 6.16,-74.62 2.79,-11.37 7.06,-22.66 6.55,-34.55 -0.25,-6.38 -1.24,-13.41 -5.79,-18.25 -4.75,-5.27 -14.04,-4.11 -18.25,1.25 -3.87,4.73 -4.87,10.96 -6.13,16.75 -2.62,17.84 -1.47,36.07 1.82,53.75 0.45,3.34 0.95,6.9 -0.09,10.18 -1.09,2.49 -4.44,2.31 -6.45,1.18 -6.86,-3.69 -12.28,-10.2 -20.1,-11.99 -2.89,-0.57 -4.15,2.75 -4.07,5.06 -0.24,10.19 1.72,20.4 0.45,30.56 -8.72,-2.52 -16.06,-8.87 -19.91,-17.07 -6.82,-12.77 -4.89,-27.99 -10.74,-41.09 -3.07,-7.96 -9.09,-14.78 -10.17,-23.47 -1.48,-11.12 1.27,-22.4 5.8,-32.52 6.5,-13.89 17.13,-25.33 28.47,-35.44 3.43,-3.06 7.23,-6.8 6.7,-11.85 0.27,-3.1 -2.9,-4.79 -5.55,-5.02 -8.79,-0.86 -17.37,2.51 -26.14,1.95 -2.66,-0.06 -5.05,-2.15 -4.92,-4.9 -0.06,-7.45 2.64,-14.56 3.51,-21.92 1.63,-9.3 3.75,-20.09 -2.3,-28.31 -7.02,-9.42 -19.39,-11.7 -28.41,-18.53 -2.74,-1.97 -4.69,-5.52 -3.3,-8.88 2.4,-5.81 7.61,-9.68 12.09,-13.81 22.88,-21.77 56.24,-31.15 87.26,-26.48 15.64,2.06 30.39,8.26 44.01,16.01 8.35,4.18 16.37,10.21 26.07,10.45 9.09,-0.09 15.85,-6.91 22.64,-12.04 14.1,-11.53 30.16,-20.63 47.29,-26.82 z"
         style="fill:#009a4e" />
      <path
         d="m 321.52,438.67 c 9.28,-8.49 24.42,-9.25 34.53,-1.78 5.39,3.83 9.24,9.76 10.48,16.26 0.7,3.91 0.33,7.9 0.35,11.85 -0.01,77.02 0.01,154.03 -0.01,231.04 0.14,2.48 -0.05,5.58 2.22,7.22 3.73,1.55 6.91,-1.5 9.82,-3.37 18.17,-13.17 39.32,-21.87 61.13,-26.87 22.9,-5.24 46.63,-6.5 70.02,-4.66 12.27,1.05 23.04,11.37 24.24,23.7 1.47,11.08 -4.74,22.6 -14.8,27.47 -8.57,4.51 -18.39,2.06 -27.56,2 -20.39,-0.13 -41.08,2.56 -60.07,10.26 -34.42,13.8 -60.31,47.26 -64.33,84.2 -2.32,20.17 1.91,40.96 11.7,58.73 14.27,26.06 39.35,45.33 67.32,54.75 15.84,5.49 32.72,7.59 49.44,7.15 9.36,-0.32 18.58,4.59 23.58,12.5 4.49,6.95 5.4,16.04 2.5,23.78 -2.91,7.96 -9.8,14.3 -17.97,16.56 -6.21,1.67 -12.71,1.18 -19.06,0.98 -30.77,-0.76 -61.38,-9.09 -88.07,-24.46 -6.44,-3.37 -12.13,-7.97 -18.42,-11.58 -3.01,-1.8 -7.11,-1.98 -10.02,0.09 -2.85,3.07 -3.03,7.55 -4.03,11.43 -1.58,6.78 -5.72,13.22 -11.94,16.58 -8.11,4.43 -18.41,3.68 -26.35,-0.76 -7.5,-4.17 -12.76,-12.19 -13.31,-20.79 0.03,-166.32 0.06,-332.65 0,-498.98 -0.87,-8.57 1.99,-17.59 8.61,-23.3 z"
         style="fill:#009a4e" />
      <path
         d="m 887.43,661.58 c 9.8,-2.92 21.13,0.41 27.71,8.27 2.46,2.63 3.9,6.06 6.52,8.56 2.19,1.95 5.39,1.36 7.76,0.06 28.7,-15.89 64.43,-16.76 94.67,-4.64 7.95,2.33 15.6,7.24 19.07,15.05 4.29,8.17 3.06,18.6 -2.26,26 -6.49,9.3 -19.87,13.62 -30.23,8.45 -11.38,-5.47 -23.95,-9.55 -36.72,-8.31 -13.14,1 -25.91,6.5 -35.81,15.16 -5.93,5.44 -10.42,12.44 -13.02,20.05 -2.64,9.68 -3.57,19.77 -3.24,29.79 0,57.65 0,115.3 0,172.95 0.06,7.85 0.62,16.29 -3.71,23.25 -5.88,10.74 -19.65,16.15 -31.28,12.28 -10.98,-3.25 -18.96,-14.15 -18.92,-25.57 0,-89.3 0,-178.61 0,-267.92 0.05,-5.48 -0.48,-11.17 1.51,-16.4 2.79,-8.13 9.69,-14.67 17.95,-17.03 z"
         style="fill:#009a4e" />
      <path
         d="m 690.6,663.93 c 32.45,-3.23 65.83,3.28 94.45,18.98 20.74,11.27 39.04,27.04 53.12,45.99 5.96,9.02 7.47,20.75 4.36,31.08 -1.08,3.68 -2.74,7.31 -5.54,10.02 -14.19,12.25 -29.34,23.32 -44.2,34.73 -32.73,24.99 -65.5,49.93 -98.21,74.94 -3.15,2.48 -6.67,4.62 -10.6,5.58 -9.52,2.59 -20.31,-1.08 -26.36,-8.84 -5.9,-7.19 -7.18,-17.7 -3.34,-26.14 2.03,-4.94 5.92,-8.75 10.13,-11.89 37.99,-29.05 76.06,-58.01 114.04,-87.08 3.21,-1.91 1.97,-6.27 -0.52,-8.22 -21.33,-18.29 -49.95,-27.77 -77.99,-25.79 -35.35,1.86 -68.96,22.36 -87.05,52.75 -18.99,30.73 -21.03,71.02 -5.47,103.6 10.73,23.13 29.9,42.16 53.01,52.9 28.33,13.33 62.46,13.77 91.04,0.91 6.22,-2.56 11.73,-6.48 17.83,-9.27 7.13,-3.45 15.81,-2.87 22.8,0.66 7.96,4 13.63,12.21 14.52,21.08 0.86,8.22 -2.07,16.83 -8.14,22.51 -5.02,4.63 -11.24,7.65 -17.22,10.83 -45.29,23.16 -101.5,23.3 -146.93,0.48 -41.24,-20.1 -73.08,-58.49 -85.16,-102.74 -11.87,-42.09 -6.04,-88.95 16.29,-126.61 18.77,-32.37 49.02,-57.94 84.16,-70.86 13.12,-5.13 27.01,-8.02 40.98,-9.6 z"
         style="fill:#009a4e" />
      <path
         d="m 1142.57,663.75 c 22.85,-3.56 46.85,-0.18 67.7,9.9 17.54,8.45 32.07,22.48 42.09,39.08 12.03,19.94 18.17,42.87 21.35,65.77 3.07,22.36 3.35,44.98 2.85,67.51 -0.34,37.35 -1.79,74.69 -3.53,112 -0.3,4.63 -0.02,9.38 -1.4,13.87 -2.21,7.44 -7.78,13.83 -14.93,16.89 -10.69,4.82 -24.48,1.44 -31.54,-7.97 -2.62,-3.23 -4.79,-7.52 -9.17,-8.55 -4.19,-1.23 -8.14,1.1 -11.72,2.95 -20.9,10.87 -44.74,15.94 -68.25,14.43 -38.95,-2.22 -77.5,-23.57 -96.44,-58.28 -20.91,-36.9 -14.22,-86.46 14.3,-117.5 19.4,-21.67 48.35,-33.41 77.15,-34.35 16.33,-1 32.37,3.21 47.96,7.56 10.48,2.92 18.43,12.69 19.34,23.51 0.71,7.1 -2.23,14.58 -8.32,18.54 -7.78,5.05 -17.74,6.47 -26.75,4.67 -7.98,-2.14 -15.9,-4.68 -24.14,-5.57 -18.21,-1.79 -38.02,4.56 -49.38,19.45 -5.4,7.84 -9.47,16.76 -10.81,26.25 -1.71,10.45 0.24,21.18 4,30.99 3.41,8.79 8.74,17.16 16.63,22.58 13.68,9.58 30.92,13.16 47.42,12.16 13.45,-0.65 26.6,-5.35 37.59,-13.09 7.77,-5.41 15.29,-11.3 21.45,-18.54 6.3,-7.49 12.37,-15.89 13.59,-25.88 3.51,-16.66 3.02,-33.71 3.24,-50.62 -0.1,-23.66 -1.17,-47.67 -7.89,-70.51 -3.28,-10.62 -7.85,-21.15 -15.52,-29.37 -12.37,-13.32 -32.19,-17.42 -49.59,-14.37 -11.44,2.04 -22.2,7.17 -31.39,14.21 -10.14,7.51 -25.45,6.31 -34.44,-2.5 -6.66,-6.29 -9.66,-16.07 -7.84,-25.03 1.39,-7.45 6.42,-13.93 12.83,-17.83 15.87,-11.33 34.29,-19.21 53.56,-22.36 z"
         style="fill:#009a4e" />
      <path
         d="m 1549.53,663.79 c 22.63,-3.6 46.38,-0.32 67.11,9.46 15.79,7.53 29.36,19.42 39.21,33.85 12.12,17.49 18.97,38.09 22.97,58.85 4.78,25.37 5.51,51.3 4.93,77.06 -0.36,41.4 -1.97,82.78 -4.02,124.12 -1.15,13.57 -14.12,24.9 -27.77,23.76 -8.65,-0.28 -16.78,-5.17 -21.4,-12.42 -2.43,-3.96 -6.7,-7.47 -11.64,-6.4 -5.17,1.27 -9.52,4.6 -14.49,6.42 -38.27,17.55 -85.39,14.78 -120.83,-8.2 -18.87,-11.97 -34.21,-29.74 -42.36,-50.61 -14.28,-36.1 -5.26,-79.95 21.66,-107.82 22.59,-23.79 56.67,-34.7 89.01,-32.11 11.81,1.3 23.41,4.15 34.8,7.48 10.21,3.06 17.86,12.69 18.81,23.27 0.41,5.91 -1.15,12.24 -5.64,16.37 -6.85,6.4 -16.86,8.16 -25.92,7.5 -7.73,-1.17 -15.02,-4.29 -22.76,-5.44 -19.21,-3.56 -40.92,2.29 -53.55,17.75 -6.3,8.58 -10.72,18.73 -11.81,29.38 -1.22,10.04 0.88,20.21 4.55,29.54 3.07,7.61 7.5,14.9 13.97,20.09 13.64,10.75 31.6,14.83 48.72,14.01 13.51,-0.49 26.81,-4.96 37.93,-12.64 8.79,-6.04 17.25,-12.75 23.93,-21.12 4.85,-6.16 9.64,-12.79 11.2,-20.63 2.21,-10.97 3.74,-22.13 3.69,-33.33 0.03,-6.96 0.11,-13.91 0.18,-20.85 -0.1,-23.89 -1.17,-48.14 -8.16,-71.14 -3.43,-10.49 -8.02,-20.97 -15.82,-28.98 -11.61,-12.1 -29.59,-16.16 -45.82,-14.25 -12.63,1.61 -24.6,7.02 -34.65,14.75 -9.79,7.22 -24.39,6.33 -33.44,-1.69 -7.79,-6.66 -11.26,-17.95 -8.36,-27.8 1.3,-5.05 4.46,-9.4 8.24,-12.89 16.8,-12.83 36.63,-21.89 57.53,-25.34 z"
         style="fill:#009a4e" />
      <path
         d="m 491.94,721.53 c 9.17,0.06 18.99,2.51 27.56,-2 0.01,76.53 -0.16,153.06 0.08,229.59 -5,-7.91 -14.22,-12.82 -23.58,-12.5 -16.72,0.44 -33.6,-1.66 -49.44,-7.15 -27.97,-9.42 -53.05,-28.69 -67.32,-54.75 -9.79,-17.77 -14.02,-38.56 -11.7,-58.73 4.02,-36.94 29.91,-70.4 64.33,-84.2 18.99,-7.7 39.68,-10.39 60.07,-10.26 z"
         style="fill:#faa61a" />
      <path
         d="m 1198.33,810.57 c 9.27,5.52 17.91,12.34 24.52,20.94 -0.22,16.91 0.27,33.96 -3.24,50.62 -1.22,9.99 -7.29,18.39 -13.59,25.88 -6.16,7.24 -13.68,13.13 -21.45,18.54 -10.99,7.74 -24.14,12.44 -37.59,13.09 -16.5,1 -33.74,-2.58 -47.42,-12.16 -7.89,-5.42 -13.22,-13.79 -16.63,-22.58 -3.76,-9.81 -5.71,-20.54 -4,-30.99 1.34,-9.49 5.41,-18.41 10.81,-26.25 11.36,-14.89 31.17,-21.24 49.38,-19.45 8.24,0.89 16.16,3.43 24.14,5.57 9.01,1.8 18.97,0.38 26.75,-4.67 6.09,-3.96 9.03,-11.44 8.32,-18.54 z" style="fill:#ed1d24" />
      <path
         d="m 1605.52,810.5 c 9.26,5.4 17.77,12.22 24.49,20.63 -0.07,6.94 -0.15,13.89 -0.18,20.85 0.05,11.2 -1.48,22.36 -3.69,33.33 -1.56,7.84 -6.35,14.47 -11.2,20.63 -6.68,8.37 -15.14,15.08 -23.93,21.12 -11.12,7.68 -24.42,12.15 -37.93,12.64 -17.12,0.82 -35.08,-3.26 -48.72,-14.01 -6.47,-5.19 -10.9,-12.48 -13.97,-20.09 -3.67,-9.33 -5.77,-19.5 -4.55,-29.54 1.09,-10.65 5.51,-20.8 11.81,-29.38 12.63,-15.46 34.34,-21.31 53.55,-17.75 7.74,1.15 15.03,4.27 22.76,5.44 9.06,0.66 19.07,-1.1 25.92,-7.5 4.49,-4.13 6.05,-10.46 5.64,-16.37 z"
         style="fill:#8ed8f8" />
      <path
         d="m 195.87,1011.07 c 12.28,-5.07 26.03,-7.63 39.14,-4.45 11.85,2.36 21.76,9.59 32.1,15.39 27.05,14.77 55.64,26.73 85.15,35.62 47.98,14.31 99.24,19.91 148.78,10.99 32.92,-6.85 65.76,-14.22 98.02,-23.77 10.63,-3.13 20.87,-7.65 31.81,-9.7 13.75,-2.87 28.21,-1.29 41.28,3.72 15.92,6.16 31.63,12.95 48.04,17.75 46.95,14.25 96.89,21.49 145.77,14.51 21.96,-2.79 42.89,-10.2 64.09,-16.21 22.09,-7.13 44.04,-14.73 65.59,-23.36 7.55,-3.05 15.17,-6.19 23.29,-7.34 11.44,-1.79 23.28,0.38 33.72,5.25 7.71,3.54 15.3,7.33 22.96,11 29.46,13.45 60.6,23.22 92.5,28.85 25.37,4.33 51.31,5.18 76.92,2.73 43.26,-3.86 85.69,-15.72 125.07,-33.96 11.18,-5.28 23.34,-9.32 35.87,-8.7 9.6,0.24 18.78,3.42 27.49,7.25 30.01,13.08 61.44,22.89 93.55,29.3 22.62,4.39 45.84,6.61 68.86,4.59 41.42,-2.95 82.69,-11.03 121.49,-26.04 10.92,-4.12 21.05,-10.38 32.54,-12.93 11.7,-2.97 24.3,-1.53 35.22,3.53 7.13,3.39 14.41,6.46 21.91,8.98 32.29,10.94 66,17.75 100.01,20.1 24.37,1.49 49.09,0.72 72.91,-5.04 4.21,-0.85 8.62,-2.72 12.9,-1.03 4.27,1.45 6.81,5.74 7.15,10.1 l 0,0.31 c -0.33,4.73 -3.52,9.12 -8.19,10.33 -39.73,10.63 -81.64,9.48 -122,3.29 -24.92,-3.93 -49.44,-10.21 -73.28,-18.43 -5.81,-2.07 -11.52,-4.38 -17.06,-7.05 -6.02,-3.04 -12.71,-5.33 -19.54,-4.57 -10.84,1 -20.19,7.08 -30.08,11.05 -36.27,14.92 -74.96,23.25 -113.83,27.75 -14.32,1.14 -28.65,2.82 -43.05,2.25 -25.32,-0.52 -50.34,-5.11 -74.86,-11.15 -20.25,-5.32 -40.24,-11.68 -59.68,-19.46 -8.38,-3.38 -16.61,-7.2 -25.23,-9.92 -8.38,-2.52 -17.4,-1.04 -25.42,2 -8.59,3.15 -16.74,7.37 -25.24,10.74 -45.44,18.78 -94.37,29.28 -143.57,30.08 -55.95,0.45 -111.04,-15.06 -161.24,-39.07 -8.99,-4.18 -17.66,-9.95 -27.81,-10.68 -8.04,-0.85 -15.7,2.26 -23.04,5.09 -21.22,8.64 -42.89,16.13 -64.63,23.35 -19.6,6.2 -39.3,12.25 -59.44,16.46 -25.32,4.9 -51.28,6.25 -77,4.53 -44.32,-3.31 -88.1,-13.79 -129.14,-30.85 -10.41,-4.19 -21.06,-9.06 -32.56,-8.55 -9.89,-0.01 -19.06,3.97 -28.33,6.87 -23.4,7.72 -47.39,13.47 -71.35,19.16 -21.1,4.35 -42.01,9.98 -63.55,11.81 -53.84,5.06 -108.28,-4.52 -158.95,-22.7 -25.12,-9.43 -49.79,-20.29 -72.91,-33.99 -7.36,-4.48 -15.1,-9.17 -23.95,-9.57 -12.89,-0.79 -24.47,5.79 -35.96,10.62 -26.94,12.82 -55.31,22.56 -84.43,29.03 -30.71,6.47 -62.38,9.82 -93.7,6.55 -5.72,-0.4 -10.75,-5 -10.98,-10.86 l 0,-0.33 c 0.35,-5.7 5.12,-10.89 11.02,-10.65 14.35,0.97 28.78,1.75 43.14,0.47 34.18,-2.42 67.86,-10.57 99.76,-23 14.34,-5.15 27.78,-12.46 41.95,-18.04 z"
         style="fill:#0cb7e1" />
      <path
         d="m 253.45,1148.51 c 2.82,-1.15 6.11,-1.32 8.89,0.06 19.85,9.9 40.34,18.58 61.34,25.72 32.59,11.46 66.68,19.66 101.33,20.65 22.46,0.44 44.81,-2.15 67.05,-5.03 22.58,-3.57 45.05,-7.92 67.17,-13.71 20.09,-4.89 39.74,-11.34 59.39,-17.7 10.53,-3.4 21.86,-5.01 32.82,-2.88 12.35,2.16 23.15,8.87 34.69,13.34 38.44,15.75 78.78,27.36 120.08,32.36 49.11,5.56 98.74,-2.13 146.22,-14.71 18.99,-5.39 37.86,-11.25 56.4,-18.05 9.27,-3.42 19.55,-4.94 29.26,-2.53 9.31,2.04 17.52,7.13 26.33,10.56 22.4,9.17 45.75,15.87 69.37,21.08 25.06,5.04 50.54,8.64 76.15,8.68 21.17,0.29 42.22,-2.39 63.11,-5.56 44.05,-7.21 87.21,-19.29 129.13,-34.54 9.07,-3.05 18.16,-6.91 27.86,-7.29 8.51,-0.3 15.69,4.73 23.38,7.52 32.88,12.82 67.66,20.31 102.71,23.97 60.43,6.13 122.57,-2.05 178.7,-25.58 4.29,-1.49 8.64,-4.58 13.38,-3.09 4.67,1.05 8.21,5.49 8.34,10.28 0.2,3.98 -2.09,7.96 -5.61,9.82 -44.37,19.59 -92.51,30.49 -140.97,32.22 -46.54,1.54 -93.33,-4.54 -137.94,-17.91 -12.68,-3.95 -25.33,-8.17 -37.3,-13.98 -1.81,-0.85 -3.79,-1.73 -5.8,-1.14 -7.27,1.31 -14.12,4.16 -21.06,6.54 -39.62,14.22 -80.25,25.85 -121.73,33.15 -29.35,5.59 -59.3,8.61 -89.19,7.27 -44.13,-2.24 -87.84,-11.5 -129.34,-26.59 -8.12,-3.06 -16.18,-6.28 -24,-10.06 -5.45,-2.68 -11.38,-4.84 -17.54,-4.54 -4.17,0.24 -8.09,1.77 -11.98,3.15 -42.46,15.25 -86.28,27.46 -131.22,32.38 -26.45,3.46 -53.33,3.85 -79.82,0.68 -45.11,-5.58 -89.18,-18.38 -130.96,-36.16 -9.52,-3.94 -18.69,-9.69 -29.24,-10.23 -8.71,-0.62 -16.89,2.88 -25.09,5.23 -47.04,15.6 -95.55,27.23 -144.89,32.4 -21.86,2.53 -43.99,3.62 -65.94,1.61 -23.66,-2.24 -46.99,-7.26 -69.74,-14.05 -29.16,-9.11 -57.9,-19.91 -85.05,-33.99 -7.7,-3.99 -6.54,-16.24 1.31,-19.35 z"
         style="fill:#005baa" />
      <path
         d="m 423.99,1265.97 c 7.57,-1.69 15.28,-2.8 22.98,-3.74 1.77,-0.09 3.74,-0.62 5.38,0.36 1.41,5.04 -0.77,10.19 -1.93,15.07 -11.76,40.79 -23.27,81.65 -33.83,122.77 -0.47,2.13 -1.1,4.62 0.32,6.57 1.65,1.8 4.24,0.99 6.04,-0.14 5.8,-3.54 9.34,-9.56 14.2,-14.13 1.94,5.96 -1.81,11.69 -5.05,16.42 -6.1,7.87 -13.77,15.25 -23.51,18.23 -2.82,0.71 -6.23,1.79 -8.74,-0.29 -3.22,-2.66 -5.48,-7.04 -4.52,-11.27 1.42,-8 3.77,-15.8 5.88,-23.62 0.47,-1.47 0.39,-3.03 0.07,-4.48 -3.93,4.69 -6.71,10.22 -10.47,15.05 -6.92,9.29 -14.97,18.55 -25.93,23.06 -5.37,2.02 -11.83,3.35 -17.09,0.33 -3.45,-1.73 -4.66,-5.71 -5.43,-9.2 -1.5,-6.45 -0.42,-13.12 1.12,-19.45 4.21,-17.24 12.41,-33.55 23.83,-47.13 8.25,-8.93 18.27,-17.64 30.67,-19.59 6,-1.05 11.17,2.94 15.41,6.63 1.97,-3.22 2.58,-6.99 3.57,-10.56 3.66,-13.53 7.32,-27.06 10.58,-40.69 0.49,-2.66 1.25,-5.43 0.55,-8.1 -2.01,-3.77 -7.47,-4.05 -9.38,-7.87 0.79,-2.31 2.92,-3.85 5.28,-4.23 m -23.55,73.53 c -4.87,2.55 -8.53,6.79 -12.08,10.88 -8.27,10.02 -14.42,21.64 -19.4,33.59 -2.9,7.31 -5.57,14.99 -5.48,22.96 0.05,2.49 1.41,6.27 4.57,5.69 6.19,-1.29 10.74,-6.2 14.99,-10.55 11.84,-12.49 19.34,-28.37 24.62,-44.58 1.62,-5.28 2.98,-11.74 -0.81,-16.42 -1.29,-2.29 -4.22,-3.16 -6.41,-1.57 z"
         style="fill:#231f20" />
      <path
         d="m 500.18,1266.22 c 4.97,-1.13 10.5,0.99 13.38,5.21 3.32,4.79 4.93,10.78 4.28,16.6 -0.72,8.38 -3.85,16.87 -10.17,22.64 -5.25,4.71 -11.35,8.72 -18.23,10.55 -2.6,0.61 -5.71,1.16 -7.96,-0.67 -2.12,-2.88 1.36,-5.2 3.56,-6.45 7.29,-3.96 13.78,-10.64 15.14,-19.09 0.83,-4.37 -0.03,-9.58 -3.85,-12.32 -2.21,-1.95 -6.02,-3.1 -5.97,-6.6 0.69,-4.97 5.02,-8.89 9.82,-9.87 z"
         style="fill:#231f20" />
      <path
         d="m 162.56,1275.76 c 13.48,-2.18 27.31,-1.09 40.48,2.35 4.91,1.68 9.51,-2.02 14.36,-1.63 1.15,1.78 1.41,4.15 0.01,5.91 -5.07,7.51 -8.53,15.99 -10.96,24.7 -1,3.48 -1.36,7.19 -2.95,10.5 -2.29,0.91 -3.8,-1.79 -4.15,-3.65 -1.2,-6.69 1.1,-13.69 -1.14,-20.25 -2.23,-6 -8.14,-9.86 -14.11,-11.45 -9.74,-2.4 -20.28,0 -28.72,5.22 -11.81,7.54 -21.4,18.29 -28.49,30.31 -10.37,18.17 -15.81,39.24 -15.08,60.18 0.39,10.67 2.91,21.47 8.46,30.68 3.83,6.33 10.48,10.66 17.68,12.13 4.3,0.86 9.23,1.87 13.13,-0.76 6.06,-3.4 8.16,-10.52 10.45,-16.6 2.71,-8.1 4.98,-16.34 7.21,-24.58 0.87,-3.36 1.46,-7.62 -1.26,-10.28 -3.96,-3.46 -9.59,-2.81 -14.22,-4.67 -1.69,-0.57 -3.75,-2.91 -1.7,-4.31 3.04,-2.15 7,-1.49 10.5,-1.49 9.95,0.55 19.97,1.37 29.89,-0.05 5,-0.53 10,-1.75 15.05,-1.25 1.84,0.07 4.8,2.01 2.95,4.01 -3.65,3.1 -9.2,2.97 -12.5,6.64 -3.81,4.46 -5.43,10.25 -7.21,15.73 -2.83,9.51 -5.42,19.15 -6.66,29.01 -0.06,4.69 -4.64,7.6 -8.63,8.93 -7.57,2.28 -15.01,5.06 -22.8,6.53 -11.38,2.11 -23.28,1.31 -34.31,-2.19 -8.87,-2.8 -16.9,-8.41 -22.1,-16.18 -9.61,-13.74 -11.64,-31.33 -9.96,-47.65 2.5,-20.62 10.74,-40.67 24.15,-56.61 13.23,-15.71 32.32,-26.25 52.63,-29.23 z"
         style="fill:#231f20" />
      <path
         d="m 740.45,1275.58 c 10.69,-2.11 22.34,-1.54 31.96,3.99 11.95,6.72 19.5,19.4 22.55,32.49 4.9,20.95 0.96,43.05 -7.14,62.68 -7.2,17.54 -18.66,33.9 -34.81,44.25 -14.33,8.79 -32.37,12.88 -48.74,7.91 -9.88,-2.8 -18.53,-9.55 -23.75,-18.37 -9.5,-15.59 -10.39,-34.93 -7.02,-52.48 3.57,-17.46 10.17,-34.51 20.59,-49.05 7.45,-10.15 16.4,-19.68 27.91,-25.18 5.83,-2.89 12.05,-5.02 18.45,-6.24 m 7.77,5.64 c -7.62,1.36 -13.86,6.46 -19.09,11.88 -10.06,10.83 -17.09,24.14 -22.09,37.96 -6.65,18.89 -10.6,38.84 -10.49,58.9 0.15,8.34 1.84,16.96 6.49,24.02 5.03,7.57 15.6,9.95 23.86,6.83 7.68,-2.86 13.57,-8.97 18.58,-15.24 7.74,-10.47 12.83,-22.6 17.36,-34.72 6.8,-18.81 10.63,-38.91 9.65,-58.95 -0.74,-8.42 -2.26,-17.22 -7.15,-24.31 -3.72,-5.41 -10.8,-7.74 -17.12,-6.37 z"
         style="fill:#231f20" />
      <path
         d="m 1212.92,1291.95 c 20.36,-15.35 48.16,-21.5 72.72,-13.68 3.54,1 6.73,3.07 10.38,3.76 2.8,-0.48 5.11,-2.38 7.85,-3.13 1.88,1.67 2.28,4.67 0.85,6.77 -4.82,8.28 -8.16,17.33 -10.5,26.6 -0.78,2.35 -1.02,5.24 -3.18,6.83 -2.54,-0.73 -3.27,-3.72 -3.13,-6.04 0.26,-5.1 1.2,-10.4 -0.68,-15.32 -3.53,-9.06 -12.46,-15.91 -22.2,-16.66 -7.63,-0.09 -14.99,2.78 -21.62,6.35 -15.42,9.55 -27.05,24.63 -33.42,41.54 -6.14,16.53 -9.59,34.31 -8.18,51.98 0.88,9.73 3.15,19.9 9.68,27.5 5.32,6.92 13.62,11.96 22.53,11.85 5.87,-0.33 11.25,-3.11 16.34,-5.84 7.84,-4.16 13.81,-10.89 19.86,-17.21 3.28,-3.3 5.36,-8.01 9.86,-9.9 1.06,5.39 -0.98,10.59 -3.57,15.21 -3.83,7.34 -8.06,14.45 -12.35,21.52 -0.86,1.66 -2.48,2.6 -4.06,3.45 -3.36,-2.82 -7.79,-4.75 -12.18,-3.26 -10.38,2.77 -21.15,5.77 -31.95,3.73 -10.49,-2.06 -21.17,-6.41 -28.07,-14.91 -5.84,-7.16 -9.89,-15.84 -11.44,-24.96 -2.69,-17.28 -1.13,-35.26 5.02,-51.67 6.34,-17.19 16.66,-33.39 31.44,-44.51 z"
         style="fill:#231f20" />
      <path
         d="m 1708.71,1311.77 c 2.81,-3.78 7.62,-5.8 12.29,-5.53 1.8,0.76 1.35,3.05 1.24,4.64 -1.14,6.53 -3.37,12.81 -4.77,19.28 -0.14,1.15 -0.87,2.95 0.89,3.2 6.54,1.18 13.68,-0.72 19.85,2.23 -1.02,2.24 -1.99,4.97 -4.53,5.9 -6.51,1.86 -13.61,0.36 -20.03,2.18 -2.92,5.41 -4.34,11.51 -6.51,17.26 -4.43,13.01 -8.64,26.1 -12.7,39.23 -0.67,2.01 -1.04,5.29 1.52,6.15 7.67,-1.99 13.29,-8.11 19.04,-13.19 1.21,-1.14 2.92,-1.28 4.47,-1.71 0.13,4.58 -2.31,8.53 -5.2,11.86 -6.92,8.55 -15.82,15.4 -25.56,20.45 -3.96,1.87 -8.22,3.77 -12.68,3.58 -4.54,-1.44 -7.89,-6.57 -6.9,-11.32 0.58,-3.75 2.03,-7.27 3.24,-10.83 5.01,-14.52 9.95,-29.07 14.94,-43.59 1.92,-6.13 4.57,-12.05 5.82,-18.36 -4.25,-0.7 -8.69,-0.35 -12.8,-1.65 -3.16,-1.55 -0.05,-5.2 1.95,-6.32 4.33,-1.95 9.37,-0.74 13.86,-2.12 2.08,-1.75 2.86,-4.54 4.16,-6.85 2.55,-4.97 5.07,-10 8.41,-14.49 z"
         style="fill:#231f20" />
      <path
         id="path45"
         d="m 1915.92,1336.96 c -0.06,-2.85 0.69,-6.5 4.02,-7.09 5.69,1.7 9.44,8.4 8.74,14.19 -0.93,10.08 -3.77,19.89 -7.32,29.34 -5.8,14.96 -12.29,29.7 -20.44,43.55 -9.11,15.58 -18.53,31.06 -29.71,45.25 -8.34,10.39 -18.24,21.29 -31.98,23.8 l -6.18,0 c -3.32,-1.25 -6.7,-3.43 -7.6,-7.07 -1.41,-5.78 1.65,-11.77 5.99,-15.48 1.43,-1.18 3.49,-2.6 5.36,-1.43 3.46,2.11 5.84,5.69 9.55,7.48 3.94,1.79 8.59,0.24 11.86,-2.27 6.61,-5.21 10.53,-13.02 12.96,-20.92 7.99,-25.99 7.65,-53.56 6.19,-80.43 -0.69,-6.79 -0.84,-14.27 -5.31,-19.85 -7.87,5.65 -9.45,16.07 -16.28,22.58 -2.74,-4.85 -1.8,-10.57 0.42,-15.4 3.83,-8.75 9.81,-17.54 19.16,-20.95 3.42,-1.24 7.87,-2.47 10.83,0.45 5.05,4.97 7.02,12.22 8,19.05 1.28,11.04 1.79,22.17 2.02,33.29 0.4,8.53 -0.74,17.04 -0.29,25.56 4.08,-4.42 5.91,-10.27 8.21,-15.7 7.1,-18.49 11.12,-38.16 11.8,-57.95 z"
         style="fill:#231f20" />
      <path
         d="m 285.15,1331.14 c 7.69,-1.3 16.23,1.39 20.98,7.77 4.05,5.53 6.74,12.18 7,19.07 0.37,17.74 -5.58,35.59 -16.92,49.3 -8.74,11.24 -21.68,19.89 -36.18,20.79 -10.49,0.91 -20.5,-7.07 -23.02,-17.09 -3.3,-10.93 -0.76,-22.5 2.86,-33 4.22,-12.79 11.12,-24.79 20.74,-34.27 6.8,-6.32 15.25,-11.24 24.54,-12.57 m -0.73,7.32 c -6.23,3.8 -9.95,10.44 -13.42,16.65 -8.69,16.96 -14.3,35.71 -14.95,54.83 -0.1,3.26 0.24,6.88 2.53,9.43 1.78,2.27 5.42,2.78 7.64,0.82 6.43,-5.24 10.26,-12.87 13.67,-20.26 6.06,-13.75 10.89,-28.15 13.3,-43 0.58,-5.45 1.94,-11.42 -0.65,-16.53 -1.44,-2.97 -5.47,-3.67 -8.12,-1.94 z"
         style="fill:#231f20" />
      <path
         d="m 559.19,1331.2 c 6.98,-1.54 16.65,1.94 17.61,9.9 -0.33,4.81 -3.3,9.2 -6.83,12.35 -2.35,0.36 -3.79,-1.87 -5.4,-3.15 -3.8,-3.59 -7.85,-7.97 -13.45,-8.17 -3.25,0.68 -5.77,3.66 -6.21,6.91 -0.55,3.13 0.75,6.2 2.19,8.92 5.52,10.2 14.79,18.04 18.96,29.03 1.9,4.71 1.45,10.07 -0.5,14.7 -5.22,12.1 -16.65,20.73 -28.94,24.81 -7.15,2.73 -15.79,0.38 -20.74,-5.38 -2.05,-2.56 -3.48,-6.21 -2.03,-9.38 1.53,-3.56 3.33,-7.17 6.17,-9.87 0.47,0 1.41,0.01 1.88,0.01 5.63,4.42 10.32,10.63 17.55,12.56 4.02,1.35 9.1,0.23 11.33,-3.61 1.52,-2.32 1.09,-5.26 0.06,-7.66 -4.16,-10.45 -13.61,-17.64 -17.91,-28 -1.91,-4.82 -2.91,-10.2 -1.67,-15.3 1.5,-6.46 4.98,-12.36 9.57,-17.1 5.05,-5.25 11.15,-9.87 18.36,-11.57 z"
         style="fill:#231f20" />
      <path
         d="m 837.46,1346.49 c 7.54,-6.93 16.09,-13.96 26.54,-15.51 3.65,-0.8 6.94,2.61 7.27,6.08 0.97,6.45 -1.26,12.83 -3.4,18.83 -4.71,13.32 -9.41,26.64 -13.69,40.11 -1.22,4.38 -2.66,9.22 -1.04,13.68 0.98,2.08 3.56,1.43 5.25,0.76 5.48,-2.44 9.8,-6.86 13.57,-11.4 5.23,-6.8 10.31,-14 12.75,-22.32 2.5,-8.95 3.91,-18.22 7.23,-26.92 2.56,-6.99 9.79,-11.62 17.11,-11.79 2.36,-0.21 4.41,1.74 4.58,4.07 0.38,4.05 -0.43,8.13 -1.51,12.03 -2.82,9.3 -7.41,17.91 -11.31,26.77 -2.75,7.01 -4.49,14.61 -3.84,22.17 0.35,2.98 0.95,6.53 3.75,8.25 3.03,1.82 6.78,0.6 9.67,-0.94 7.5,-4 12.07,-11.55 16.42,-18.54 5.56,-10.28 9.31,-22.13 7.97,-33.91 -0.43,-4.51 -2.54,-8.61 -3.32,-13.02 0.16,-3.44 2.97,-5.9 5.23,-8.17 3.18,-2.77 6.81,-5.93 11.28,-5.84 3.11,1.42 3.38,5.27 3.91,8.24 1.87,16.64 -4.94,32.7 -13.04,46.82 -7.39,12.44 -16.41,24.15 -27.74,33.26 -6.28,4.99 -13.92,9.38 -22.23,8.58 -4.85,-0.6 -7.62,-5.39 -8.68,-9.71 -1.82,-6.32 -0.51,-12.87 -0.17,-19.28 -3.52,2.54 -5.97,6.18 -9.01,9.22 -5.78,5.87 -11.57,11.89 -18.63,16.24 -3.83,2.39 -8.42,3.92 -12.96,3.27 -3.99,-0.83 -6.28,-4.81 -7.23,-8.46 -1.97,-7.57 0.34,-15.31 2.36,-22.61 3.4,-10.84 7.21,-21.54 10.73,-32.34 1.49,-4.76 3.51,-9.39 4.18,-14.36 -7.72,1.19 -12.98,7.47 -19.18,11.58 -2,-6.11 3.38,-10.9 7.18,-14.84 z"
         style="fill:#231f20" />
      <path
         d="m 983.43,1352.34 c 4.71,-12.68 17.88,-21.97 31.53,-21.12 4.3,0.81 7.41,5.36 6.53,9.68 -3.37,12.04 -9.58,23.17 -12.58,35.31 1.6,-0.26 2.75,-1.36 3.51,-2.73 5.22,-8.6 11.11,-16.79 17.49,-24.56 4.97,-6.07 10.88,-11.47 17.82,-15.19 3.9,-2.08 8.47,-3.48 12.87,-2.19 5.33,1.22 8.98,6.29 9.78,11.52 0.78,5.47 -0.58,10.97 -2.19,16.18 -4.86,14.73 -10.75,29.1 -16.7,43.42 -0.73,1.57 -1.16,5.37 1.5,4.91 8.24,-2.07 13.1,-9.91 20.2,-13.96 0.75,3.83 -0.8,7.5 -3.04,10.52 -6.04,8.64 -14.42,15.5 -23.73,20.35 -4.46,2.16 -9.35,4.01 -14.38,3.75 -4.89,-1.27 -9.51,-6.9 -6.81,-11.97 8.26,-19.15 16.57,-38.28 24.33,-57.64 1.5,-4.03 3.43,-8.2 2.93,-12.6 -0.44,-2.88 -3.91,-3.96 -6.28,-2.69 -5.63,2.66 -9.61,7.76 -13.37,12.56 -14.81,20.98 -24.81,44.85 -38.23,66.67 -1.57,2.24 -3.11,4.78 -5.69,5.98 -4.95,0.3 -9.66,-3.83 -10.26,-8.69 -0.06,-4.26 1.45,-8.32 2.87,-12.26 7.3,-19.27 15.99,-38.02 22.43,-57.61 1.06,-1.87 -1.67,-2.87 -3.02,-2.13 -7.44,1.58 -11.15,9.08 -17.2,12.96 -1.71,-2.6 -1.38,-5.72 -0.31,-8.47 z"
         style="fill:#231f20" />
      <path
         d="m 1363.15,1331.22 c 7.7,-1.44 16.36,1.05 21.26,7.39 4.19,5.56 6.96,12.33 7.25,19.34 0.34,17.38 -5.31,34.9 -16.25,48.49 -8.53,11.24 -21.06,20.1 -35.37,21.5 -10.25,1.6 -20.64,-5.44 -23.9,-15.08 -2.74,-7.66 -2.65,-16.07 -0.85,-23.92 3.84,-16.91 11.56,-33.33 24.14,-45.5 6.61,-6.07 14.76,-10.81 23.72,-12.22 m 0.15,7.06 c -6.12,3.45 -9.78,9.83 -13.19,15.74 -9.08,17.26 -14.87,36.44 -15.53,56 -0.1,3.34 0.29,7.1 2.76,9.62 1.91,2.17 5.5,2.37 7.64,0.38 7.34,-6.24 11.34,-15.3 15.12,-23.94 5.41,-13.2 9.92,-26.9 11.88,-41.07 0.45,-4.94 1.49,-10.4 -1.11,-14.93 -1.48,-2.6 -5.07,-3.25 -7.57,-1.8 z"
         style="fill:#231f20" />
      <path
         d="m 1437.11,1345.14 c 6.96,-6.07 14.6,-12.11 23.86,-14.01 3.59,-1.34 6.37,2.25 7.6,5.16 0.91,3.75 -1.38,7.26 -2.56,10.69 -6.45,16.81 -12.53,33.78 -17.92,50.96 -0.81,3.29 -2.23,7.82 0.87,10.35 3.5,0.75 6.53,-2.15 9.08,-4.21 9.66,-9.11 16.71,-20.57 23.15,-32.08 5.87,-10.93 11.28,-22.09 16.64,-33.27 1.62,-3.08 3.55,-6.63 7.07,-7.77 3.49,-0.44 6.8,1.77 8.88,4.45 2.22,2.64 0.88,6.36 0.09,9.33 -6.6,18.27 -13.58,36.42 -19.16,55.03 -0.82,2.09 -0.52,4.31 0.25,6.38 7.47,-1.93 13.05,-7.66 18.21,-13.05 1.33,-1.54 3.1,-2.59 4.94,-3.43 0.7,5.58 -2.7,10.41 -5.66,14.79 -5.92,8.02 -13.62,14.71 -22.22,19.71 -4.07,2.04 -8.63,4.48 -13.3,3.56 -3.26,-1.75 -5.91,-5.77 -4.7,-9.54 2.99,-10.79 8.41,-20.88 10.38,-31.95 -3.8,1.45 -5.5,5.43 -8.05,8.3 -7.34,9.26 -15.78,17.64 -24.97,25.05 -4.57,3.7 -9.69,7.01 -15.52,8.22 -3.49,0.71 -7.78,0.13 -9.72,-3.21 -2.25,-4.09 -1.08,-9.03 0.3,-13.2 6.43,-18.66 13.18,-37.21 20.14,-55.68 0.77,-1.83 0.91,-3.82 0.77,-5.76 -5.13,2.07 -9.3,5.75 -13.8,8.85 -1.47,1.11 -3.36,1.29 -5.09,1.62 0.91,-6.45 5.89,-11.11 10.44,-15.29 z"
         style="fill:#231f20" />
      <path
         d="m 1549.21,1353.99 c 3.98,-13.51 17.75,-23.59 31.9,-22.79 5.04,0.83 8.14,6.66 6.24,11.37 -3.4,9.68 -7.3,19.17 -10.97,28.74 -0.73,1.73 -0.86,3.61 -0.73,5.5 3.86,-3.42 5.77,-8.36 8.87,-12.39 7.52,-10.5 15.04,-21.59 26.09,-28.7 4.69,-3.01 10.33,-5.76 16.03,-4.23 5.7,1.18 9.52,6.74 10.1,12.31 0.63,6.43 -1.34,12.72 -3.38,18.73 -4.57,13.1 -9.62,26.03 -15.12,38.76 -1.04,2.06 -1.1,4.37 -0.61,6.61 9.01,-1.48 14.39,-9.64 21.59,-14.39 1.48,4.68 -1.51,8.96 -4.19,12.52 -5.78,7.56 -13.36,13.64 -21.72,18.12 -4.44,2.28 -9.29,4.1 -14.33,4.15 -5.2,-0.77 -10.24,-6.73 -7.52,-11.97 6.94,-16.08 13.9,-32.15 20.56,-48.34 2.25,-5.78 4.98,-11.42 6.5,-17.45 0.46,-2.47 0.86,-5.85 -1.74,-7.25 -3.7,-1.54 -7.13,1.51 -9.77,3.72 -9.94,9.26 -16.13,21.59 -22.82,33.21 -6.5,11.83 -12.62,23.88 -19.31,35.61 -2.88,4.46 -4.97,10.18 -9.9,12.74 -4.85,0.13 -9.39,-3.86 -10.06,-8.61 -0.06,-5.28 2.11,-10.21 3.89,-15.07 7.32,-18.8 15.65,-37.23 21.96,-56.43 -3.44,-1.69 -7.11,0.3 -9.79,2.45 -3.67,2.8 -6.39,6.64 -10.1,9.36 -3.02,-0.31 -2.15,-4.27 -1.67,-6.28 z"
         style="fill:#231f20" />
      <path
         d="m 1770.8,1333.78 c 3.61,-2.12 7.96,-3.58 12.17,-2.62 4.38,1.08 7.06,5.48 7.76,9.71 1.03,9.51 -3.97,18.21 -4.91,27.46 4.04,-4.36 6.37,-9.94 9.67,-14.83 4.21,-6.57 8.57,-13.26 14.6,-18.33 3.72,-3.09 8.81,-5.4 13.69,-3.88 3.66,1.12 5.71,4.96 6.15,8.57 0.61,8.37 -3.12,17.07 -10.01,21.98 -1.59,1.39 -4.75,1.09 -5.28,-1.19 -1.57,-4.09 -1.52,-9.27 -5.04,-12.3 -4.62,0.66 -6.66,5.72 -8.95,9.21 -8.87,17.01 -15.81,34.95 -23.56,52.49 -2.41,5.13 -4.29,10.69 -8.02,15.06 -2.8,3.45 -8.05,3.68 -11.74,1.64 -1.42,-0.8 -3.22,-1.81 -3.16,-3.66 -0.22,-3.72 1.45,-7.16 2.47,-10.64 5.85,-18.41 12.21,-36.69 17.17,-55.36 0.76,-2.42 0.81,-7.23 -2.8,-6.88 -6.72,1.45 -9.81,8.43 -15.06,12.18 -0.9,-2.03 -1.76,-4.23 -0.93,-6.42 2.54,-8.85 7.74,-17.37 15.78,-22.19 z"
         style="fill:#231f20" />
  </g>
</svg>
